# xmcd
#
# Track frame offsets: 
#        150
#        13877
#        38180
#        57805
#        74127
#        96897
#        119527
#        138917
#        156117
#        175535
#
# Disc length: 2724 seconds
#
# Revision: 0
# Processed by: cddbd v1.5.2PL0 Copyright (c) Steve Scherf et al.
# Submitted via: ExactAudioCopyFreeDBPlugin 1.0
#
DISCID=880aa20a
DTITLE=Beau Redding - Dime Box
DYEAR=2001
DGENRE=New Zealand: Country/Blues
TTITLE0=As Soon As I Get Some Money
TTITLE1=Austin
TTITLE2=Not Even Love
TTITLE3=Drive
TTITLE4=Even Now
TTITLE5=Smile
TTITLE6=Vietnam Song
TTITLE7=I Have Never
TTITLE8=Love Conquers All
TTITLE9=A Girl Like Her
EXTD=
EXTT0=
EXTT1=
EXTT2=
EXTT3=
EXTT4=
EXTT5=
EXTT6=
EXTT7=
EXTT8=
EXTT9=
PLAYORDER=
